<svg xmlns="http://www.w3.org/2000/svg" width="33.7419" height="33.7419" viewBox="0 0 33.7419 33.7419"><defs><style>.cls-1{fill:#ffc60b;opacity:0.5;}.cls-2{fill:#fff;}.cls-3,.cls-4{fill:none;stroke-miterlimit:10;}.cls-3{stroke:#ffc60b;}.cls-4{stroke:#000;}</style></defs><g id="Layer_3" data-name="Layer 3"><rect id="background" class="cls-1" x="6.7354" y="6.7354" width="20.2711" height="20.2711" transform="translate(-6.9882 16.871) rotate(-45)"/><g id="star"><polygon points="17.371 10.205 19.15 15.679 24.906 15.679 20.249 19.063 22.028 24.537 17.371 21.154 12.714 24.537 14.493 19.063 9.836 15.679 15.592 15.679 17.371 10.205"/><polygon class="cls-2" points="16.871 9.705 18.65 15.179 24.406 15.179 19.749 18.563 21.528 24.037 16.871 20.654 12.214 24.037 13.993 18.563 9.336 15.179 15.092 15.179 16.871 9.705"/></g><rect id="border" class="cls-3" x="5.5573" y="5.5573" width="22.6274" height="22.6274" transform="translate(-6.9882 16.871) rotate(-45)"/><rect id="black" class="cls-4" x="6.7354" y="6.7354" width="20.2711" height="20.2711" transform="translate(-6.9882 16.871) rotate(-45)"/></g></svg>