<svg xmlns="http://www.w3.org/2000/svg" viewBox="0 0 34.83 34.83"><defs><style>.cls-1{fill:#ed1c24;}</style></defs><g id="Layer_2" data-name="Layer 2"><g id="Enemy"><path class="cls-1" d="M34.83,17.41l-8-8,4.48-4.47L29.89,3.52,25.41,8l-8-8L9.47,8,5,3.52,3.63,4.94,8.05,9.36,0,17.41l8,8L3.63,29.79,5,31.2l4.37-4.37,8,8,8-8,4.48,4.48,1.42-1.42-4.48-4.48ZM17.41,32l-6.58-6.59,4.48-4.47-1.42-1.42L9.41,24,2.83,17.41l6.64-6.63,4.42,4.42,1.42-1.41L10.88,9.36l6.53-6.53L24,9.41l-4.37,4.38L21,15.2l4.37-4.37L32,17.41,25.41,24,21,19.63,19.63,21,24,25.41Z"/></g></g></svg>