<svg xmlns="http://www.w3.org/2000/svg" width="16" height="16" viewBox="0 0 16 16"><defs><style>.cls-1{fill:#ed1c24;}</style></defs><g id="Enemy"><path class="cls-1" d="M16,8,12.3248,4.3248l2.057-2.057-.65-.65-2.057,2.057L8,0,4.3488,3.6512l-2.033-2.033-.65.65,2.033,2.033L0,8l3.6752,3.6752-2.009,2.009.65.65,2.009-2.009L8,16l3.6753-3.6753,2.0569,2.0569.65-.65-2.0569-2.0568ZM8,14.7008,4.9744,11.6752l2.057-2.057-.65-.65-2.057,2.057L1.2992,8l3.05-3.05,2.033,2.033.65-.65-2.033-2.033L8,1.2992l3.0256,3.0256-2.009,2.009.65.65,2.009-2.009L14.7008,8l-3.0255,3.0255L9.6662,9.0164l-.65.65,2.0091,2.0091Z"/></g></svg>